<svg xmlns="http://www.w3.org/2000/svg" viewBox="0 0 1200 675" role="img" aria-labelledby="t d"><title id="t">Módulo Camaleões</title><desc id="d">Capa premium do módulo Camaleões da Turma do Primo</desc><defs><radialGradient id="bg" cx="80%" cy="35%" r="82%"><stop stop-color="#1b8b63" stop-opacity=".28"/><stop offset=".42" stop-color="#180c2a"/><stop offset="1" stop-color="#05040a"/></radialGradient><linearGradient id="gold"><stop stop-color="#ffe18b"/><stop offset="1" stop-color="#c58620"/></linearGradient><linearGradient id="green"><stop stop-color="#8dffc9"/><stop offset="1" stop-color="#2bc78b"/></linearGradient><linearGradient id="violet"><stop stop-color="#d77cff"/><stop offset="1" stop-color="#6f28c8"/></linearGradient><filter id="g"><feGaussianBlur stdDeviation="10" result="b"/><feMerge><feMergeNode in="b"/><feMergeNode in="SourceGraphic"/></feMerge></filter></defs><rect width="1200" height="675" rx="32" fill="url(#bg)"/><g opacity=".18" fill="none" stroke="#6cffbd"><circle cx="930" cy="318" r="228"/><circle cx="930" cy="318" r="170"/><path d="M0 602C260 490 530 540 760 616S1045 655 1200 570" stroke-width="3"/></g><g transform="translate(66 56)"><path d="M32 0 61 17v40L32 77 3 57V17Z" fill="#120719" stroke="#edbd52" stroke-width="3"/><text x="32" y="55" text-anchor="middle" font-family="Georgia" font-size="48" font-weight="700" fill="url(#gold)">P</text><text x="82" y="27" font-family="Inter,Arial" font-size="14" letter-spacing="6" fill="#e9e0ed">TURMA DO PRIMO</text><text x="82" y="54" font-family="Inter,Arial" font-size="11" letter-spacing="4" fill="#72e8b2">MÓDULO 05</text></g><g transform="translate(74 286)"><text font-family="Inter,Arial" font-size="18" font-weight="800" letter-spacing="8" fill="#72e8b2">ESTRATÉGIA</text><text y="102" font-family="Georgia" font-size="91" font-weight="700" fill="#fff">CAMALEÕES</text><text y="155" font-family="Inter,Arial" font-size="19" letter-spacing="7" fill="#e7bd5b">ADAPTAÇÃO · LEITURA</text><text y="207" font-family="Inter,Arial" font-size="16" fill="#bcb1c4">Observe ausências e mudanças de família.</text></g><g transform="translate(930 320)" filter="url(#g)"><path d="M-115 78c-55-33-66-115-18-164 43-45 117-47 165-8 48 39 59 108 26 160-30 47-88 69-141 51 32 0 58-25 58-56 0-34-28-61-62-61-35 0-63 28-63 63 0 19 9 37 24 49" fill="none" stroke="url(#green)" stroke-width="20" stroke-linecap="round"/><circle cx="-46" cy="-73" r="16" fill="#f6d472"/><circle cx="-42" cy="-76" r="6" fill="#13081e"/><path d="M35-102c64 12 106 51 119 104M31 117c68 10 116-9 148-54" fill="none" stroke="url(#violet)" stroke-width="13" stroke-linecap="round"/><path d="M-3 37c50 7 77 28 88 64" fill="none" stroke="#f1c85e" stroke-width="7" stroke-linecap="round"/></g><rect x="74" y="605" width="290" height="2" fill="url(#gold)"/><text x="74" y="636" font-family="Inter,Arial" font-size="12" letter-spacing="5" fill="#8f8298">OBSERVE · ADAPTE · CONFIRME</text></svg>