<svg xmlns="http://www.w3.org/2000/svg" viewBox="0 0 1200 675" role="img" aria-labelledby="t d"><title id="t">Módulo Fibonacci</title><desc id="d">Capa premium do módulo Fibonacci da Turma do Primo</desc><defs><radialGradient id="bg" cx="80%" cy="36%" r="82%"><stop stop-color="#6e2cb9" stop-opacity=".48"/><stop offset=".5" stop-color="#190b2b"/><stop offset="1" stop-color="#05040a"/></radialGradient><linearGradient id="gold"><stop stop-color="#ffe18b"/><stop offset="1" stop-color="#c58620"/></linearGradient><linearGradient id="violet"><stop stop-color="#d77cff"/><stop offset="1" stop-color="#6e28c9"/></linearGradient><filter id="g"><feGaussianBlur stdDeviation="9" result="b"/><feMerge><feMergeNode in="b"/><feMergeNode in="SourceGraphic"/></feMerge></filter></defs><rect width="1200" height="675" rx="32" fill="url(#bg)"/><g opacity=".19" fill="none" stroke="#ba65ff"><circle cx="930" cy="318" r="228"/><circle cx="930" cy="318" r="170"/><circle cx="930" cy="318" r="112"/><path d="M0 605C280 470 560 545 770 620S1040 650 1200 560" stroke-width="3"/></g><g transform="translate(66 56)"><path d="M32 0 61 17v40L32 77 3 57V17Z" fill="#120719" stroke="#edbd52" stroke-width="3"/><text x="32" y="55" text-anchor="middle" font-family="Georgia" font-size="48" font-weight="700" fill="url(#gold)">P</text><text x="82" y="27" font-family="Inter,Arial" font-size="14" letter-spacing="6" fill="#e9e0ed">TURMA DO PRIMO</text><text x="82" y="54" font-family="Inter,Arial" font-size="11" letter-spacing="4" fill="#c979ff">MÓDULO 03</text></g><g transform="translate(74 286)"><text font-family="Inter,Arial" font-size="18" font-weight="800" letter-spacing="8" fill="#cc77ff">ESTRATÉGIA</text><text y="102" font-family="Georgia" font-size="96" font-weight="700" fill="#fff">FIBONACCI</text><text y="155" font-family="Inter,Arial" font-size="19" letter-spacing="7" fill="#e7bd5b">SEQUÊNCIA · PROTEÇÃO</text><text y="207" font-family="Inter,Arial" font-size="16" fill="#bcb1c4">Cruze resultados, organize alvos e proteções.</text></g><g transform="translate(930 316)" fill="none" stroke-linecap="round" filter="url(#g)"><path d="M-160 115V-120H70V80H-105V-55H5V25H-48V-8H-15" stroke="url(#gold)" stroke-width="8"/><path d="M-160 115c0-130 100-235 230-235 98 0 178 80 178 178 0 78-63 141-141 141-61 0-110-49-110-110 0-48 39-87 87-87 37 0 68 30 68 68 0 29-24 53-53 53" stroke="url(#violet)" stroke-width="10"/></g><rect x="74" y="605" width="290" height="2" fill="url(#gold)"/><text x="74" y="636" font-family="Inter,Arial" font-size="12" letter-spacing="5" fill="#8f8298">CALCULE · CONECTE · PROTEJA</text></svg>