<svg xmlns="http://www.w3.org/2000/svg" viewBox="0 0 720 480" role="img" aria-labelledby="t d"><title id="t">Ícone do módulo Gêmeos</title><desc id="d">Dois bustos espelhados em roxo neon com símbolo de Gêmeos ao centro.</desc><defs><radialGradient id="bg" cx="50%" cy="44%" r="70%"><stop stop-color="#31105e"/><stop offset=".58" stop-color="#10051d"/><stop offset="1" stop-color="#030107"/></radialGradient><linearGradient id="gold" x1="0" y1="0" x2="1" y2="1"><stop stop-color="#ffe8a1"/><stop offset=".45" stop-color="#dca53a"/><stop offset="1" stop-color="#76410e"/></linearGradient><linearGradient id="violet" x1="0" y1="0" x2="1" y2="1"><stop stop-color="#f071ff"/><stop offset=".45" stop-color="#8f2eff"/><stop offset="1" stop-color="#351077"/></linearGradient><filter id="g"><feGaussianBlur stdDeviation="7" result="b"/><feMerge><feMergeNode in="b"/><feMergeNode in="SourceGraphic"/></feMerge></filter></defs><rect width="720" height="480" rx="48" fill="url(#bg)"/><rect x="13" y="13" width="694" height="454" rx="42" fill="none" stroke="#7d2de7" stroke-width="2" opacity=".8"/><circle cx="360" cy="226" r="176" fill="none" stroke="url(#gold)" stroke-width="3" opacity=".8"/><circle cx="360" cy="226" r="160" fill="none" stroke="#8f2eff" stroke-width="6" opacity=".75"/><g fill="#a23cff" opacity=".8" filter="url(#g)"><circle cx="360" cy="54" r="4"/><circle cx="203" cy="225" r="4"/><circle cx="517" cy="225" r="4"/><circle cx="360" cy="394" r="4"/></g><g stroke="url(#violet)" stroke-width="5" fill="#130622"><path d="M316 321c-34 16-88 22-119 4-28-16-25-47 1-71 14-13 31-23 42-40 9-14 12-34 9-51-4-23 4-48 23-63 20-16 50-22 74-12 23 9 39 33 38 58-1 21-13 40-27 56-11 12-22 24-27 40-8 24 2 53 24 67-9 4-25 7-38 12z"/><path d="M404 321c34 16 88 22 119 4 28-16 25-47-1-71-14-13-31-23-42-40-9-14-12-34-9-51 4-23-4-48-23-63-20-16-50-22-74-12-23 9-39 33-38 58 1 21 13 40 27 56 11 12 22 24 27 40 8 24-2 53-24 67 9 4 25 7 38 12z"/></g><g fill="none" stroke="#d250ff" stroke-width="3" opacity=".75"><path d="M255 117c37-24 74-20 97 7M240 141c34-22 68-17 87 7M465 117c-37-24-74-20-97 7M480 141c-34-22-68-17-87 7"/></g><g fill="#d9bcff" opacity=".7"><circle cx="305" cy="177" r="5"/><circle cx="415" cy="177" r="5"/></g><g font-family="Sora,Inter,Arial" font-weight="900" text-anchor="middle" filter="url(#g)"><text x="360" y="345" font-size="124" fill="url(#violet)" stroke="url(#gold)" stroke-width="2">Ⅱ</text></g><g fill="url(#gold)" filter="url(#g)"><path d="M360 39l6 15 16 6-16 6-6 16-6-16-16-6 16-6z"/><path d="M360 407l5 12 12 5-12 5-5 13-5-13-12-5 12-5z"/><path d="M184 226l5 12 12 5-12 5-5 13-5-13-12-5 12-5z"/><path d="M536 226l5 12 12 5-12 5-5 13-5-13-12-5 12-5z"/></g></svg>