<svg xmlns="http://www.w3.org/2000/svg">
  <symbol id="book" viewBox="0 0 24 24"><g fill="none" stroke="currentColor" stroke-width="1.8" stroke-linecap="round" stroke-linejoin="round"><path d="M3.5 5.5A3.5 3.5 0 0 1 7 2h4v17H7a3.5 3.5 0 0 0-3.5 3V5.5Z"/><path d="M20.5 5.5A3.5 3.5 0 0 0 17 2h-4v17h4a3.5 3.5 0 0 1 3.5 3V5.5Z"/><path d="M7 6h2.3M14.7 6H17"/></g></symbol>
  <symbol id="spark" viewBox="0 0 24 24"><g fill="none" stroke="currentColor" stroke-width="1.8" stroke-linecap="round" stroke-linejoin="round"><path d="M12 2.5 14 8l5.5 2-5.5 2-2 5.5-2-5.5-5.5-2L10 8l2-5.5Z"/><path d="m18.5 15 .9 2.6 2.6.9-2.6.9-.9 2.6-.9-2.6-2.6-.9 2.6-.9.9-2.6Z"/></g></symbol>
  <symbol id="timeline" viewBox="0 0 24 24"><g fill="none" stroke="currentColor" stroke-width="1.8" stroke-linecap="round" stroke-linejoin="round"><circle cx="12" cy="12" r="8.5"/><path d="M12 7v5l3.3 2"/><path d="M4.4 5.2 2.8 3.6M19.6 5.2l1.6-1.6"/></g></symbol>
  <symbol id="trophy" viewBox="0 0 24 24"><g fill="none" stroke="currentColor" stroke-width="1.8" stroke-linecap="round" stroke-linejoin="round"><path d="M8 3h8v4.5a4 4 0 0 1-8 0V3Z"/><path d="M8 5H4.5v1.5A4.5 4.5 0 0 0 9 11M16 5h3.5v1.5A4.5 4.5 0 0 1 15 11"/><path d="M12 12v4M8.5 21h7M9.5 17h5l1 4h-7l1-4Z"/></g></symbol>
  <symbol id="layers" viewBox="0 0 24 24"><g fill="none" stroke="currentColor" stroke-width="1.8" stroke-linecap="round" stroke-linejoin="round"><path d="m12 3 8 4-8 4-8-4 8-4Z"/><path d="m4 12 8 4 8-4M4 17l8 4 8-4"/></g></symbol>
  <symbol id="gamepad" viewBox="0 0 24 24"><g fill="none" stroke="currentColor" stroke-width="1.8" stroke-linecap="round" stroke-linejoin="round"><path d="M7.5 7h9a5 5 0 0 1 4.8 6.5l-1.1 3.7a2.4 2.4 0 0 1-3.7 1.3L14 16.8h-4l-2.5 1.7a2.4 2.4 0 0 1-3.7-1.3l-1.1-3.7A5 5 0 0 1 7.5 7Z"/><path d="M7 11v4M5 13h4M16.5 11.5h.01M18.5 14h.01"/></g></symbol>
  <symbol id="activity" viewBox="0 0 24 24"><g fill="none" stroke="currentColor" stroke-width="1.8" stroke-linecap="round" stroke-linejoin="round"><path d="M3 12h4l2-6 4 12 2-6h6"/><circle cx="12" cy="12" r="9" opacity=".25"/></g></symbol>
  <symbol id="star" viewBox="0 0 24 24"><path d="m12 3 2.75 5.57 6.15.9-4.45 4.33 1.05 6.12L12 17.03l-5.5 2.89 1.05-6.12L3.1 9.47l6.15-.9L12 3Z" fill="none" stroke="currentColor" stroke-width="1.8" stroke-linejoin="round"/></symbol>
  <symbol id="target" viewBox="0 0 24 24"><g fill="none" stroke="currentColor" stroke-width="1.8" stroke-linecap="round" stroke-linejoin="round"><circle cx="11" cy="13" r="7.5"/><circle cx="11" cy="13" r="3"/><path d="m14 10 6-6M16.5 4H20v3.5"/></g></symbol>
  <symbol id="shield" viewBox="0 0 24 24"><path d="M12 3 5 6v5c0 4.5 2.8 8.1 7 10 4.2-1.9 7-5.5 7-10V6l-7-3Z" fill="none" stroke="currentColor" stroke-width="1.8" stroke-linejoin="round"/><path d="m9.2 12 1.8 1.8 3.9-4" fill="none" stroke="currentColor" stroke-width="1.8" stroke-linecap="round" stroke-linejoin="round"/></symbol>
  <symbol id="clock" viewBox="0 0 24 24"><g fill="none" stroke="currentColor" stroke-width="1.8" stroke-linecap="round" stroke-linejoin="round"><circle cx="12" cy="12" r="8.5"/><path d="M12 7.5V12l3 1.8"/></g></symbol>
  <symbol id="arrow" viewBox="0 0 24 24"><path d="M19 12H5m6-6-6 6 6 6" fill="none" stroke="currentColor" stroke-width="1.8" stroke-linecap="round" stroke-linejoin="round"/></symbol>
</svg>