<svg xmlns="http://www.w3.org/2000/svg" viewBox="0 0 650 430"><defs><radialGradient id="b"><stop stop-color="#7a22c2" stop-opacity=".52"/><stop offset="1" stop-color="#04050a" stop-opacity="0"/></radialGradient><linearGradient id="g"><stop stop-color="#f8d984"/><stop offset=".48" stop-color="#d09c31"/><stop offset="1" stop-color="#792fc1"/></linearGradient><filter id="gl"><feGaussianBlur stdDeviation="10" result="x"/><feMerge><feMergeNode in="x"/><feMergeNode in="SourceGraphic"/></feMerge></filter></defs><ellipse cx="365" cy="228" rx="270" ry="195" fill="url(#b)"/><g opacity=".2" fill="none" stroke="#9f43e8"><circle cx="390" cy="212" r="180"/><circle cx="390" cy="212" r="130"/></g><g transform="translate(85 45)" filter="url(#gl)"><circle cx="225" cy="180" r="132" fill="#0a0810" stroke="url(#g)" stroke-width="13"/><circle cx="225" cy="180" r="92" fill="#160b21" stroke="#8f37da" stroke-width="6"/><circle cx="225" cy="180" r="28" fill="#d4a23c"/><g stroke="#d9aa42" stroke-width="8" stroke-linecap="round"><path d="M225 62v53M225 245v53M107 180h53M290 180h53M142 97l38 38M270 225l38 38M308 97l-38 38M180 225l-38 38"/></g><path d="M102 305h247v36H102z" fill="#100916" stroke="#b052ef" stroke-width="5"/><path d="M134 341h183v28H134z" fill="#06060a" stroke="#d1a13b" stroke-width="4"/></g><g transform="translate(365 200)"><path d="M0 160V70h38v90M58 160V28h38v132M116 160V92h38v68M174 160V0h38v160" fill="none" stroke="url(#g)" stroke-width="16"/><path d="M4 122 71 82l65 25 65-73" fill="none" stroke="#d76cff" stroke-width="8" filter="url(#gl)"/><path d="M188 27l21 7-7-22" fill="#f6d376"/></g><g transform="translate(410 295)"><ellipse cx="55" cy="75" rx="55" ry="18" fill="#1a0a25" stroke="#d4a23b" stroke-width="4"/><rect x="0" y="18" width="110" height="58" rx="10" fill="#2a0e3f" stroke="#e8b94f" stroke-width="4"/><ellipse cx="55" cy="18" rx="55" ry="18" fill="#45116d" stroke="#e8b94f" stroke-width="4"/><text x="55" y="58" text-anchor="middle" fill="#f3d071" font-family="Georgia" font-size="34">P</text></g></svg>