<svg xmlns="http://www.w3.org/2000/svg" viewBox="0 0 560 420"><defs><radialGradient id="b"><stop stop-color="#8029c7" stop-opacity=".48"/><stop offset="1" stop-color="#050811" stop-opacity="0"/></radialGradient><linearGradient id="g"><stop stop-color="#f4d077"/><stop offset=".5" stop-color="#a74aeb"/><stop offset="1" stop-color="#4b1778"/></linearGradient><filter id="gl"><feGaussianBlur stdDeviation="8" result="x"/><feMerge><feMergeNode in="x"/><feMergeNode in="SourceGraphic"/></feMerge></filter></defs><ellipse cx="315" cy="225" rx="248" ry="185" fill="url(#b)"/><g fill="none" stroke="#a64bf0" opacity=".17"><circle cx="330" cy="218" r="176"/><circle cx="330" cy="218" r="130"/><circle cx="330" cy="218" r="84"/></g><g transform="translate(64 78)"><rect width="125" height="250" rx="18" fill="#0b0e15" stroke="#6f2ba9" stroke-width="4"/><circle cx="62" cy="78" r="38" fill="#170b24" stroke="url(#g)" stroke-width="5"/><text x="62" y="94" text-anchor="middle" font-family="Georgia" font-size="53" fill="#e8b94f">Ⅱ</text><rect x="20" y="140" width="85" height="9" rx="4" fill="#b14cf0"/><rect x="20" y="165" width="70" height="7" rx="4" fill="#252b36"/><rect x="20" y="190" width="85" height="7" rx="4" fill="#252b36"/><rect x="20" y="218" width="85" height="20" rx="7" fill="#351253"/></g><g transform="translate(210 53)"><rect width="140" height="285" rx="20" fill="#0b0e15" stroke="#bd55fa" stroke-width="5" filter="url(#gl)"/><circle cx="70" cy="82" r="42" fill="#170b24" stroke="url(#g)" stroke-width="6"/><path d="M48 91c14-28 30-28 44 0" fill="none" stroke="#e8b94f" stroke-width="6"/><rect x="22" y="150" width="96" height="10" rx="5" fill="#c052ff"/><rect x="22" y="177" width="74" height="7" rx="4" fill="#252b36"/><rect x="22" y="201" width="92" height="7" rx="4" fill="#252b36"/><rect x="22" y="232" width="96" height="34" rx="9" fill="#43136a" stroke="#9d43df"/></g><g transform="translate(370 76)"><rect width="125" height="250" rx="18" fill="#0b0e15" stroke="#6f2ba9" stroke-width="4"/><circle cx="62" cy="78" r="38" fill="#170b24" stroke="url(#g)" stroke-width="5"/><path d="M36 79h52M62 53v52" stroke="#e8b94f" stroke-width="6"/><rect x="20" y="140" width="85" height="9" rx="4" fill="#b14cf0"/><rect x="20" y="165" width="70" height="7" rx="4" fill="#252b36"/><rect x="20" y="190" width="85" height="7" rx="4" fill="#252b36"/><rect x="20" y="218" width="85" height="20" rx="7" fill="#351253"/></g><ellipse cx="280" cy="360" rx="150" ry="24" fill="#6d1ba2" opacity=".38" filter="url(#gl)"/></svg>