<svg xmlns="http://www.w3.org/2000/svg" viewBox="0 0 1200 675"><defs><radialGradient id="b" cx="77%" cy="44%" r="70%"><stop stop-color="#511179"/><stop offset=".58" stop-color="#13081e"/><stop offset="1" stop-color="#04050a"/></radialGradient><linearGradient id="g"><stop stop-color="#fff1ad"/><stop offset=".43" stop-color="#d7a43b"/><stop offset="1" stop-color="#9145d5"/></linearGradient><linearGradient id="skin" x1="0" x2="1"><stop stop-color="#60219b"/><stop offset=".5" stop-color="#d8a849"/><stop offset="1" stop-color="#47206f"/></linearGradient><filter id="gl"><feGaussianBlur stdDeviation="9" result="x"/><feMerge><feMergeNode in="x"/><feMergeNode in="SourceGraphic"/></feMerge></filter></defs><rect width="1200" height="675" rx="28" fill="url(#b)"/><g opacity=".15" fill="none" stroke="#ac48ef"><circle cx="930" cy="330" r="250"/><circle cx="930" cy="330" r="178"/><path d="M0 590C300 470 520 540 740 605s320 35 460-65"/></g><g transform="translate(720 80)" filter="url(#gl)"><path d="M355 215c-42-116-199-158-306-68-49 42-69 108-50 169 24 78 106 125 187 104 58-15 106-60 122-117 16 40 24 81 23 123 0 45-23 77-61 88 63 15 116-23 127-82 12-69-3-146-42-217Z" fill="url(#skin)" stroke="#e8b94f" stroke-width="8"/><circle cx="280" cy="188" r="44" fill="#101018" stroke="#f3cd64" stroke-width="8"/><circle cx="280" cy="188" r="13" fill="#db9b35"/><path d="M75 330c73 17 146 8 215-28-39 69-143 106-215 28Z" fill="#250d3b"/><path d="M105 110l20-55 31 48 40-40 7 58 55-21-22 55" fill="none" stroke="#d4a33c" stroke-width="8" stroke-linecap="round"/><path d="M36 385c-58 38-62 104-5 143 50 34 127 12 143-48-40 35-93 37-120 4-26-32-7-75 30-83" fill="none" stroke="#a54beb" stroke-width="16" stroke-linecap="round"/></g><g transform="translate(74 75)"><rect width="58" height="68" fill="#0b0711" stroke="#e8b94f" stroke-width="2"/><text x="29" y="51" text-anchor="middle" font-family="Georgia" font-size="46" fill="#e8b94f">P</text><text x="80" y="30" fill="#dfd5e4" font-family="Arial" font-size="16" letter-spacing="7">TURMA DO PRIMO</text><text x="80" y="60" fill="#b557ff" font-family="Arial" font-size="12" letter-spacing="5">MÓDULO EXCLUSIVO</text></g><g transform="translate(74 320)"><text fill="#c865ff" font-family="Arial" font-size="22" font-weight="700" letter-spacing="9">MÓDULO</text><text y="94" fill="url(#g)" font-family="Georgia" font-size="82" font-weight="700">CAMALEÕES</text><text y="142" fill="#ddd4e2" font-family="Arial" font-size="18" letter-spacing="6">ADAPTE-SE • OBSERVE • DOMINE</text></g></svg>